<?xml version="1.0" standalone="no"?>
<!DOCTYPE svg PUBLIC "-//W3C//DTD SVG 20010904//EN"
 "http://www.w3.org/TR/2001/REC-SVG-20010904/DTD/svg10.dtd">
<svg version="1.0" xmlns="http://www.w3.org/2000/svg"
 width="2000.000000pt" height="799.000000pt" viewBox="0 0 2000.000000 799.000000"
 preserveAspectRatio="xMidYMid meet">

<g transform="translate(0.000000,799.000000) scale(0.100000,-0.100000)"
fill="#000000" stroke="none">
<path d="M7983 7688 c-28 -37 -72 -382 -67 -528 1 -47 3 -168 4 -270 1 -199
11 -261 57 -358 23 -48 25 -63 22 -160 -4 -156 -3 -190 9 -204 15 -19 25 -84
18 -113 -6 -23 -11 -25 -60 -25 -30 0 -99 5 -155 10 -56 6 -107 7 -114 3 -21
-14 -61 -11 -81 6 -18 15 -19 15 -14 -6 4 -15 2 -23 -7 -23 -7 0 -15 -6 -18
-12 -3 -10 -11 -10 -34 -2 -29 11 -29 10 -19 -12 6 -13 16 -24 21 -24 6 0 3
-4 -4 -9 -9 -6 -22 -6 -34 0 -17 9 -17 8 -7 -10 6 -12 17 -21 25 -21 21 0 19
-20 -2 -20 -10 -1 -4 -7 15 -15 29 -13 32 -17 22 -35 -9 -16 -8 -20 5 -20 9 0
14 -4 10 -10 -9 -15 6 -60 21 -60 17 0 18 -31 2 -49 -11 -11 -10 -13 2 -9 15
5 80 -67 80 -88 0 -7 12 -15 27 -19 19 -4 23 -9 14 -14 -9 -6 -5 -10 13 -15
14 -3 26 -11 26 -17 0 -6 4 -8 10 -4 11 7 50 -25 50 -41 0 -7 8 -10 18 -7 12
3 22 -4 30 -21 6 -14 18 -26 26 -26 8 0 18 -10 22 -22 8 -25 20 -39 49 -56 17
-10 18 -11 3 -12 -23 0 -23 -5 4 -43 13 -18 23 -34 23 -37 0 -14 45 -60 58
-60 8 0 20 -6 26 -14 10 -11 9 -15 -4 -18 -14 -3 -13 -8 7 -38 13 -19 34 -37
48 -41 14 -4 21 -7 16 -8 -6 -1 -2 -7 7 -14 16 -11 15 -15 -15 -48 -92 -101
-227 -316 -213 -339 4 -6 2 -10 -3 -10 -6 0 -25 -32 -43 -72 -19 -40 -49 -101
-66 -136 -18 -36 -30 -69 -27 -74 3 -5 -4 -20 -16 -33 -12 -12 -23 -29 -24
-36 -3 -16 -13 -42 -28 -79 -18 -44 -48 -154 -48 -178 0 -13 -7 -31 -16 -39
-11 -12 -14 -26 -9 -51 5 -25 3 -32 -6 -26 -9 5 -10 2 -6 -9 3 -8 0 -21 -8
-27 -17 -14 -10 -38 22 -69 30 -29 25 -36 -13 -16 -29 15 -29 14 -32 -13 -5
-47 20 -105 48 -113 l25 -7 -27 -1 c-17 -1 -28 -7 -28 -15 0 -27 20 -68 43
-88 17 -15 18 -18 5 -14 -25 8 -22 -11 7 -39 13 -14 19 -25 13 -25 -7 0 -6 -5
2 -15 7 -8 21 -15 32 -15 10 0 16 -4 13 -10 -3 -5 3 -10 14 -10 14 0 19 -5 14
-16 -4 -10 1 -17 16 -21 11 -3 21 -9 21 -13 0 -19 103 -42 166 -37 l64 5 68
-54 c63 -51 75 -57 113 -57 11 0 14 -7 11 -22 -4 -24 33 -59 51 -48 6 3 7 1 4
-4 -4 -6 24 -42 62 -79 77 -77 121 -138 121 -165 0 -11 14 -33 30 -51 19 -20
30 -41 30 -60 0 -16 9 -50 20 -76 11 -26 24 -74 30 -107 19 -106 22 -113 41
-118 10 -3 19 -13 19 -24 0 -10 18 -54 40 -98 22 -44 40 -92 40 -107 0 -15 4
-49 10 -75 11 -56 19 -530 9 -540 -10 -11 -15 -66 -7 -79 6 -8 3 -144 -3 -181
-3 -20 3 -31 20 -36 29 -7 45 -113 31 -202 -7 -38 -14 -92 -16 -120 -2 -27
-10 -129 -18 -225 -18 -209 -25 -387 -28 -650 l-1 -195 56 -3 56 -3 9 38 c22
88 32 188 36 348 2 104 10 197 20 240 35 159 55 297 60 415 2 69 11 166 20
215 9 50 16 137 16 195 0 101 10 167 44 294 30 114 41 88 50 -119 7 -178 17
-250 47 -338 22 -65 26 -189 8 -234 -12 -30 -16 -1024 -4 -1043 3 -6 27 -10
53 -10 l47 0 -3 187 c-1 104 -7 206 -13 228 -20 71 -28 156 -18 182 6 18 6 30
-2 40 -9 11 -7 19 11 38 22 24 23 25 6 89 -13 51 -14 74 -5 113 6 26 14 208
17 403 6 267 10 361 21 379 8 15 16 20 23 13 5 -5 14 -133 19 -293 5 -156 14
-347 19 -424 6 -77 13 -264 16 -415 5 -286 15 -362 55 -440 l18 -35 -1 45 c-2
128 0 140 28 151 21 7 31 6 45 -7 16 -15 18 -31 16 -133 l-2 -116 28 -3 c23
-3 27 0 27 23 0 14 5 35 11 46 7 14 7 24 0 33 -6 7 -13 36 -16 64 -2 29 -14
70 -25 92 -21 42 -26 80 -11 96 5 5 11 27 14 49 3 22 14 75 26 118 12 42 22
101 23 130 2 73 -13 299 -21 315 -4 7 -4 42 0 78 7 74 -7 141 -35 156 -14 8
-17 24 -17 81 0 197 3 237 16 237 7 0 15 -3 19 -7 8 -9 60 -28 166 -60 76 -24
101 -27 235 -26 125 0 163 4 230 22 149 43 250 101 368 211 80 75 187 209 226
283 12 23 49 87 82 142 33 55 84 149 115 209 97 192 156 299 202 366 63 91 96
134 105 138 4 2 7 10 7 17 0 8 10 21 22 29 12 9 19 16 16 16 -4 0 14 22 41 50
26 27 45 53 42 56 -3 4 2 4 11 1 11 -4 15 -2 12 7 -5 14 17 37 61 61 l30 17
-27 -5 c-16 -2 -28 0 -28 4 0 5 9 9 19 9 29 0 52 11 45 21 -3 5 -11 7 -17 3
-7 -3 -3 2 7 10 11 9 23 16 27 16 4 0 10 9 14 19 4 13 12 18 28 14 16 -3 18
-2 8 5 -11 8 -10 12 8 21 12 7 27 9 33 5 6 -4 8 -3 5 3 -4 5 3 20 15 33 13 13
23 19 26 12 2 -6 10 -8 18 -5 12 5 12 7 -2 18 -16 11 -16 12 0 18 9 4 16 2 16
-4 0 -12 47 -1 78 19 17 11 25 12 37 2 58 -48 172 -69 241 -45 22 8 38 19 37
24 -2 6 0 10 5 9 18 -5 53 15 48 27 -3 10 0 12 11 8 9 -3 21 0 27 8 6 8 23 24
39 36 28 22 122 143 110 143 -3 0 2 9 12 20 10 11 16 23 12 26 -3 3 3 14 14
25 32 32 25 49 -18 43 -21 -2 -42 -9 -47 -14 -15 -15 -36 -12 -30 5 4 8 11 15
18 15 22 0 117 50 112 59 -3 5 1 25 9 45 18 43 14 56 -18 49 -20 -4 -20 -4 3
9 14 7 25 19 24 26 -1 7 -2 21 -2 32 -1 12 -9 20 -19 20 -14 0 -15 2 -4 9 7 5
10 14 6 21 -5 8 -13 6 -29 -7 -34 -31 -76 -54 -76 -43 0 6 8 13 18 17 31 11
72 56 72 80 0 26 -3 27 -31 12 -20 -10 -20 -10 -4 21 10 20 14 42 10 61 -8 35
-12 35 -44 7 l-25 -23 24 34 c16 23 20 36 12 39 -7 2 -12 13 -12 24 0 15 -4
18 -21 13 -19 -6 -21 -4 -16 16 7 28 -6 55 -22 45 -14 -9 -14 -1 0 22 8 13 5
28 -11 64 -11 26 -25 50 -30 53 -6 3 -10 13 -10 21 0 9 -7 22 -15 31 -12 12
-19 13 -30 3 -13 -11 -14 -6 -9 32 4 29 2 48 -5 52 -6 4 -11 15 -11 25 0 10
-7 24 -15 31 -9 7 -13 21 -10 31 4 11 -2 27 -14 41 -12 12 -21 27 -21 32 0 6
-11 23 -25 38 -14 15 -25 35 -25 45 0 10 -16 42 -35 72 -19 29 -35 57 -35 62
0 9 -35 79 -59 119 -5 8 -17 32 -26 53 -9 20 -20 37 -25 37 -19 0 -10 21 13
29 57 22 77 70 27 63 -39 -6 -40 16 -1 24 52 11 141 124 98 124 -9 0 -8 3 2 9
16 10 6 71 -12 71 -7 1 0 7 14 15 15 8 29 21 33 30 3 8 12 15 21 15 8 0 15 5
15 10 0 6 9 10 20 10 11 0 20 4 20 8 0 4 13 15 29 25 16 10 31 27 33 40 2 16
9 21 25 20 16 -2 21 2 17 12 -4 10 0 15 14 15 13 0 33 17 53 45 25 34 37 44
51 39 13 -4 19 -1 17 8 -4 29 2 38 26 38 15 0 25 6 25 14 0 8 7 17 16 20 10 4
14 14 11 25 -3 14 0 17 14 14 15 -4 17 0 13 23 -3 16 0 30 7 35 10 6 10 11 0
23 -11 13 -11 17 3 22 9 3 14 10 11 15 -3 4 11 17 32 28 43 23 42 25 -6 11
-32 -9 -33 -8 -17 9 20 22 21 32 1 25 -8 -4 -15 -1 -15 6 0 16 -28 42 -39 36
-5 -3 -84 -6 -177 -7 -94 -1 -178 -6 -189 -12 -11 -6 -20 -6 -22 -1 -2 6 -30
8 -63 6 -48 -3 -60 0 -60 12 0 8 -8 17 -17 19 -10 3 -3 5 15 6 31 1 31 2 15
19 -10 10 -34 40 -53 66 -19 27 -47 65 -62 85 -15 20 -30 52 -33 71 -4 19 -11
40 -16 46 -6 7 -5 34 3 70 16 70 15 83 -7 197 -9 48 -17 101 -17 118 -1 16 -5
32 -10 35 -4 3 -5 11 -1 17 4 7 8 44 9 82 1 39 3 70 3 70 1 0 4 48 6 108 2 59
11 154 20 211 18 121 6 304 -21 319 -8 4 -14 14 -14 22 0 8 -5 17 -10 20 -7 4
-9 -3 -6 -19 3 -14 0 -28 -5 -31 -5 -4 -9 -36 -8 -73 1 -77 -17 -280 -31 -332
-5 -19 -16 -107 -25 -194 -9 -87 -20 -167 -26 -177 -5 -11 -12 -72 -14 -136
-3 -65 -7 -139 -10 -165 -2 -26 -1 -49 4 -52 14 -9 4 -145 -14 -195 -17 -50
-19 -81 -5 -81 5 0 7 -6 5 -12 -3 -7 20 -39 51 -72 30 -32 53 -63 51 -70 -3
-6 -33 -22 -68 -36 -79 -30 -179 -79 -179 -86 0 -7 72 -95 105 -130 33 -34
116 -75 180 -88 l60 -13 -74 -16 c-134 -31 -441 -18 -441 17 0 7 -9 21 -20 31
-10 9 -19 20 -18 24 2 19 -3 31 -12 26 -6 -3 -13 1 -17 10 -3 10 0 21 8 25 28
18 2 18 -56 0 -99 -30 -148 -43 -180 -46 -17 -1 -50 -9 -75 -18 -25 -8 -89
-27 -143 -41 -55 -14 -107 -31 -117 -37 -33 -21 -43 -57 -29 -104 11 -36 16
-41 31 -33 11 6 18 6 18 0 0 -5 9 -7 20 -4 11 3 17 9 14 14 -8 14 40 11 54 -3
13 -13 104 -49 187 -75 28 -8 54 -19 60 -24 5 -5 14 -9 20 -9 5 0 3 5 -5 10
-18 12 88 9 108 -3 7 -5 12 -4 12 3 0 7 6 8 19 0 11 -5 27 -10 36 -10 9 0 28
-9 42 -20 14 -11 41 -22 62 -26 20 -3 43 -8 51 -12 22 -8 90 -11 90 -3 0 4 9
7 20 7 11 0 20 -4 20 -9 0 -5 6 -4 14 2 7 6 20 9 27 7 11 -4 74 -11 142 -15 4
-1 7 -10 7 -22 0 -11 5 -30 11 -41 9 -18 8 -24 -6 -34 -17 -13 -17 -14 1 -21
17 -6 17 -8 -6 -14 -24 -7 -24 -7 -2 -8 12 -1 22 -5 22 -10 0 -15 -18 -23 -25
-12 -9 16 -36 0 -33 -19 5 -34 -45 -66 -95 -60 -21 2 -18 -18 9 -74 8 -16 14
-35 14 -43 0 -8 7 -13 16 -11 10 2 19 -3 21 -9 3 -7 0 -13 -6 -13 -7 0 -8 -6
-2 -17 5 -10 17 -35 27 -55 10 -20 27 -39 38 -42 16 -4 17 -8 7 -20 -10 -12
-6 -25 20 -73 17 -32 36 -63 41 -69 5 -7 8 -16 7 -20 -3 -13 18 -61 30 -69 7
-3 8 0 5 9 -3 9 -2 16 3 16 5 0 17 -39 27 -87 20 -96 27 -111 75 -162 17 -18
29 -37 26 -41 -3 -5 0 -21 7 -37 6 -15 10 -34 9 -41 -1 -6 10 -17 25 -22 16
-7 24 -16 21 -24 -7 -18 21 -42 44 -38 17 3 17 1 3 -28 -9 -16 -14 -36 -12
-42 3 -7 11 2 19 20 7 18 17 32 21 32 11 0 10 -32 -2 -50 -7 -11 -5 -17 8 -22
15 -6 15 -7 0 -7 -11 -1 -15 -7 -11 -22 4 -12 11 -18 20 -15 8 3 17 6 19 6 2
0 4 11 4 25 0 14 5 25 10 25 6 0 10 -7 10 -16 0 -8 5 -12 10 -9 6 3 10 1 10
-4 0 -6 -4 -11 -8 -11 -15 0 -43 -60 -37 -80 9 -28 24 -25 62 12 18 18 33 27
33 21 0 -7 -4 -14 -9 -17 -5 -3 -19 -22 -30 -42 -20 -33 -20 -36 -4 -30 12 4
10 -1 -7 -15 -15 -13 -20 -24 -14 -26 16 -5 7 -133 -9 -149 -4 -4 -7 -15 -7
-23 0 -26 -65 -114 -97 -133 -26 -15 -33 -15 -48 -4 -19 14 -64 7 -88 -13 -7
-5 -32 -14 -57 -21 -25 -7 -54 -16 -65 -20 -65 -26 -85 -31 -93 -27 -12 8 -68
-13 -124 -45 -26 -16 -54 -28 -63 -28 -36 0 -109 -55 -98 -73 3 -6 1 -7 -6 -3
-6 4 -14 0 -17 -8 -3 -9 -14 -16 -24 -16 -10 0 -25 -6 -32 -13 -22 -21 -61
-43 -108 -61 -49 -19 -104 -61 -96 -74 3 -5 -8 -6 -25 -4 -18 3 -29 0 -29 -7
0 -7 -4 -10 -9 -7 -10 6 -234 -102 -239 -116 -2 -4 -7 -6 -12 -3 -4 2 -20 -7
-34 -20 -15 -14 -31 -23 -36 -20 -5 3 -17 -2 -27 -12 -10 -10 -28 -17 -41 -15
-12 2 -48 -6 -80 -18 -31 -12 -86 -24 -121 -26 -36 -2 -67 -7 -70 -12 -13 -16
-68 -50 -101 -61 -58 -19 -248 -61 -276 -61 -26 0 -27 -1 -20 -46 5 -38 3 -45
-9 -40 -10 4 -15 -1 -15 -14 0 -11 -4 -20 -10 -20 -5 0 -10 -4 -10 -10 0 -15
28 -12 37 5 5 9 17 12 31 8 29 -7 28 -19 -2 -27 -23 -6 -24 -9 -23 -90 2 -93
-9 -116 -52 -116 -14 0 -37 -9 -51 -20 -27 -21 -83 -26 -124 -10 -41 15 -116
89 -109 107 3 8 0 18 -6 22 -12 8 -22 63 -24 128 -1 37 21 84 38 81 6 -2 11 2
12 7 0 6 -3 9 -8 8 -14 -4 -11 13 4 26 10 8 19 6 35 -9 12 -11 24 -20 27 -20
11 0 4 39 -7 44 -7 2 -2 3 12 2 17 -2 24 -9 22 -20 -4 -20 7 -20 36 0 15 11
38 15 68 12 72 -5 51 6 -53 31 -132 30 -163 40 -163 54 0 7 -11 17 -24 23 -20
9 -23 9 -18 -8 2 -10 -1 -18 -7 -18 -6 0 -11 10 -11 23 0 34 -37 52 -110 53
-47 0 -68 -4 -77 -15 -11 -14 -12 -13 -10 9 2 20 -4 26 -38 38 -22 7 -50 10
-62 7 -13 -3 -23 -1 -23 5 0 14 -27 12 -33 -2 -3 -8 -6 -5 -6 6 -1 13 -6 16
-18 12 -9 -4 -19 -3 -22 2 -16 22 -187 112 -215 112 -6 0 -34 9 -63 20 -29 11
-79 29 -110 41 -32 11 -70 27 -85 35 -14 8 -35 14 -46 14 -10 0 -30 8 -43 19
-13 10 -40 21 -59 25 -19 3 -60 24 -90 46 -30 22 -71 48 -90 58 -19 9 -38 21
-41 25 -3 4 -13 5 -21 2 -9 -4 -19 -2 -22 4 -4 5 -41 27 -84 47 -42 20 -89 46
-105 58 -32 24 -67 79 -67 107 0 11 -14 33 -31 49 -24 21 -34 42 -42 82 -12
65 -10 128 5 145 5 7 8 26 6 42 -3 19 0 27 8 24 13 -5 24 40 24 98 0 27 4 39
14 39 8 0 18 5 21 10 4 7 -2 9 -19 4 -19 -5 -26 -2 -26 9 0 11 6 13 22 9 22
-5 22 -5 5 22 -10 15 -16 35 -14 44 3 14 6 12 15 -8 6 -14 11 -18 12 -10 0 13
2 13 9 0 6 -8 7 -18 5 -22 -3 -4 -1 -8 4 -8 5 0 9 15 10 33 0 37 5 64 15 73 4
4 7 16 7 26 0 10 5 18 11 18 5 0 15 15 21 33 6 17 26 61 45 96 18 35 33 70 33
77 0 8 4 14 9 14 5 0 12 14 16 30 4 16 11 30 15 30 5 0 17 16 26 35 9 19 21
35 26 35 5 0 7 4 4 8 -3 5 4 18 14 30 11 12 20 25 20 29 0 5 13 24 30 43 16
19 29 41 30 48 0 7 18 31 41 53 22 21 37 43 34 49 -3 5 4 14 15 20 11 6 19 14
19 18 -4 21 2 42 11 42 14 0 59 51 60 67 0 7 11 20 26 29 33 22 18 37 -43 41
-25 1 -50 8 -54 14 -4 7 -18 9 -35 5 -18 -4 -24 -3 -16 2 28 19 -32 94 -73 91
-43 -3 -75 1 -75 10 0 6 15 11 33 13 17 2 31 8 29 13 -2 6 -10 9 -18 7 -18 -4
-18 13 1 32 8 8 15 28 15 45 0 30 27 50 50 36 5 -3 10 0 10 7 1 8 6 6 15 -5
14 -19 55 -16 55 4 0 6 4 8 10 4 5 -3 7 -12 4 -19 -3 -8 -1 -17 4 -20 6 -3 13
1 16 9 4 12 16 15 52 10 26 -3 51 -8 56 -11 5 -3 25 2 44 11 19 9 39 13 45 9
11 -6 96 13 114 26 6 4 30 11 55 15 40 7 43 6 31 -9 -20 -24 -5 -20 21 6 l21
21 8 -21 c5 -12 11 -22 14 -22 4 0 4 4 1 8 -2 4 16 14 42 21 26 8 52 20 59 29
14 17 67 26 56 10 -4 -8 4 -9 25 -5 19 4 32 2 34 -5 3 -8 9 -8 24 0 19 11 19
11 -1 12 l-20 1 20 9 c11 5 14 9 8 9 -7 1 -13 6 -13 11 0 7 6 7 20 0 23 -12
104 16 97 34 -3 8 11 11 42 10 61 -2 61 -2 61 -20 0 -8 -5 -12 -10 -9 -6 3
-13 -1 -16 -9 -3 -9 -12 -16 -20 -16 -8 0 -11 6 -8 15 4 10 0 15 -11 15 -11 0
-15 -5 -11 -15 3 -8 1 -15 -3 -15 -5 0 -11 6 -14 13 -3 9 -7 9 -19 0 -8 -7
-18 -10 -21 -6 -4 3 -7 1 -7 -5 0 -7 7 -12 16 -12 8 0 12 -4 9 -10 -3 -5 -21
-10 -40 -10 -20 0 -35 -6 -39 -15 -4 -13 -2 -13 14 -5 10 5 34 10 54 10 19 0
46 4 60 10 31 12 34 0 5 -18 -12 -7 -19 -16 -16 -18 3 -3 -8 -19 -24 -37 -26
-28 -27 -32 -12 -38 23 -8 32 -1 13 12 -11 7 -8 8 10 4 14 -3 39 -1 55 6 17 7
34 11 38 10 5 -1 6 3 2 9 -6 9 7 14 30 11 6 -1 1 7 -11 17 l-21 18 24 17 c19
15 23 15 23 3 0 -21 17 -29 24 -10 4 10 2 13 -6 8 -8 -5 -9 -2 -5 9 3 10 2 17
-4 17 -6 0 -7 5 -4 10 6 9 -8 14 -27 11 -13 -2 -9 17 5 22 9 4 9 6 -1 6 -20 1
-3 21 18 21 14 0 18 6 15 22 -3 13 -10 25 -15 26 -6 2 -19 12 -28 23 -10 10
-35 25 -55 34 -31 13 -414 115 -432 115 -3 0 -5 -13 -5 -29 0 -27 -6 -32 -57
-51 -97 -36 -194 -50 -346 -49 -78 1 -155 4 -172 8 l-30 7 34 7 c58 12 180 75
212 109 36 38 69 88 69 104 0 6 -28 22 -62 34 -35 13 -67 27 -73 31 -5 4 -61
32 -122 63 -62 31 -117 65 -123 76 -6 11 -12 80 -15 155 -4 122 -8 142 -32
191 -14 29 -29 54 -33 54 -3 0 -14 26 -24 58 -10 31 -25 71 -32 89 -8 17 -14
38 -14 46 0 8 -9 43 -19 78 -11 35 -22 87 -25 114 -4 28 -13 109 -21 180 -10
86 -15 219 -14 395 1 146 0 270 -1 275 -1 6 -2 13 -1 18 2 11 -5 9 -16 -5z
m-83 -1672 c0 -11 -19 -15 -25 -6 -3 5 1 10 9 10 9 0 16 -2 16 -4z m68 -58 c5
-7 15 -39 22 -70 19 -97 105 -207 187 -239 15 -6 23 -13 16 -16 -20 -7 -163
65 -228 114 -96 74 -156 159 -136 192 16 25 122 40 139 19z m4452 2 c-8 -5
-19 -10 -25 -10 -5 0 -3 5 5 10 8 5 20 10 25 10 6 0 3 -5 -5 -10z m-304 -29
c-4 -5 -1 -11 5 -13 23 -8 -3 -81 -45 -126 -43 -48 -149 -122 -173 -122 -8 0
17 30 55 68 54 52 74 80 91 127 13 33 28 63 34 67 17 11 39 10 33 -1z m-305
-118 c45 2 64 -2 67 -12 4 -11 6 -11 14 0 6 10 7 7 3 -9 -5 -19 -55 -80 -55
-67 0 2 -25 -9 -56 -26 -31 -16 -70 -29 -88 -29 -65 1 -177 74 -159 104 4 6 6
21 4 33 -3 29 23 56 48 48 12 -3 21 0 25 10 5 13 16 10 70 -19 55 -30 72 -34
127 -33z m-3671 11 c0 -7 9 -16 20 -19 11 -3 20 -10 20 -15 0 -4 17 -4 38 0
63 15 95 21 137 27 22 3 52 12 66 19 14 7 34 11 45 9 10 -2 24 -4 30 -4 43 -3
2 -121 -51 -149 -38 -20 -166 -27 -177 -9 -6 9 -8 9 -8 0 0 -7 -19 5 -42 27
-31 31 -43 38 -50 28 -7 -10 -11 -10 -14 -1 -3 6 -21 28 -40 48 -39 42 -40 44
-17 61 20 14 43 2 43 -22z m988 -364 c-7 -11 -18 -20 -25 -20 -18 0 -5 28 15
33 10 3 18 5 20 6 1 0 -3 -8 -10 -19z m-765 4 c-7 -3 -10 -11 -7 -18 6 -16
-21 -40 -36 -31 -14 9 -13 42 3 48 6 3 21 5 32 5 11 0 15 -2 8 -4z m186 2 c-2
-1 -19 -8 -36 -14 -37 -12 -45 -6 -10 8 22 9 54 13 46 6z m-135 -12 c21 -8 21
-44 0 -44 -8 0 -13 4 -10 9 3 4 -6 6 -20 3 -24 -4 -25 -3 -15 17 12 22 20 25
45 15z m141 -24 c-3 -5 -12 -10 -18 -10 -7 0 -6 4 3 10 19 12 23 12 15 0z
m-165 -24 c0 -2 -7 -7 -16 -10 -8 -3 -12 -2 -9 4 6 10 25 14 25 6z m170 -22
c0 -8 -5 -12 -10 -9 -6 4 -8 11 -5 16 9 14 15 11 15 -7z m-324 -268 c9 -10 11
-17 4 -21 -12 -7 -40 12 -40 26 0 14 20 11 36 -5z m-456 -767 c0 -5 -4 -9 -10
-9 -5 0 -10 7 -10 16 0 8 5 12 10 9 6 -3 10 -10 10 -16z m79 -64 c0 -5 -4 -3
-9 5 -5 8 -9 22 -9 30 0 16 17 -16 18 -35z m131 -104 c0 -5 -7 -11 -14 -14
-10 -4 -13 -1 -9 9 6 15 23 19 23 5z m3980 -35 c0 -11 -19 -15 -25 -6 -3 5 1
10 9 10 9 0 16 -2 16 -4z m30 -6 c0 -5 -4 -10 -10 -10 -5 0 -10 5 -10 10 0 6
5 10 10 10 6 0 10 -4 10 -10z m240 -45 c-7 -9 -15 -13 -19 -10 -3 3 1 10 9 15
21 14 24 12 10 -5z m-150 -140 c0 -8 -7 -15 -15 -15 -16 0 -20 12 -8 23 11 12
23 8 23 -8z m300 -115 c0 -5 -5 -10 -11 -10 -5 0 -7 5 -4 10 3 6 8 10 11 10 2
0 4 -4 4 -10z m-4653 -306 c-3 -3 -12 -4 -19 -1 -8 3 -5 6 6 6 11 1 17 -2 13
-5z m537 -239 c10 -8 22 -12 27 -10 4 3 10 1 14 -5 8 -13 -1 -13 -42 2 -18 7
-33 16 -33 20 0 12 13 9 34 -7z m-7 -47 c-3 -8 -6 -5 -6 6 -1 11 2 17 5 13 3
-3 4 -12 1 -19z m66 5 c-7 -2 -19 -2 -25 0 -7 3 -2 5 12 5 14 0 19 -2 13 -5z
m3232 -33 c3 -5 1 -10 -4 -10 -6 0 -11 5 -11 10 0 6 2 10 4 10 3 0 8 -4 11
-10z m-707 -279 c-24 -39 -147 -86 -162 -63 -5 8 36 30 129 68 42 17 47 17 33
-5z m-1595 -47 c-6 -18 -19 -18 -26 -1 -3 7 3 13 14 14 12 1 16 -3 12 -13z
m-83 -27 c74 -27 94 -57 38 -57 -38 0 -92 30 -108 59 -14 26 -9 26 70 -2z
m195 -7 c3 -5 1 -10 -4 -10 -6 0 -11 5 -11 10 0 6 2 10 4 10 3 0 8 -4 11 -10z
m90 -30 c-5 -8 -11 -8 -17 -2 -6 6 -7 16 -3 22 5 8 11 8 17 2 6 -6 7 -16 3
-22z m1179 14 c9 -24 7 -63 -5 -86 -8 -15 -8 -23 2 -32 9 -8 11 -7 6 7 -4 11
-3 16 3 12 6 -3 10 -10 10 -14 0 -18 -65 -74 -108 -92 -63 -27 -101 -27 -123
-1 -20 26 -29 28 -29 7 0 -8 -9 -24 -19 -34 -11 -11 -16 -21 -10 -23 11 -4
-24 -104 -49 -138 -10 -14 -39 -36 -64 -50 -41 -22 -49 -23 -72 -11 -23 13
-29 11 -72 -18 -91 -60 -126 -30 -124 109 0 46 7 143 11 148 1 1 2 5 4 10 7
25 18 41 26 36 5 -3 9 1 9 9 0 8 11 26 24 40 19 20 36 26 92 32 38 4 95 13
127 21 64 16 86 11 65 -14 -12 -13 -10 -14 9 -4 29 16 36 15 29 -3 -3 -8 -3
-15 0 -15 2 0 9 10 13 23 l9 22 11 -25 11 -25 -3 27 c-3 23 1 29 32 41 83 34
121 39 147 22 21 -14 24 -14 24 0 0 8 -5 15 -11 15 -5 0 -7 5 -4 10 9 15 22
12 29 -6z m-1252 -44 c46 -11 87 -28 94 -38 8 -10 13 -44 14 -84 0 -64 -1 -68
-25 -74 -18 -4 -45 3 -90 25 -68 34 -82 50 -90 103 -16 102 -16 101 0 94 9 -3
52 -15 97 -26z m557 -163 c0 -21 -1 -21 -9 -2 -12 28 -12 37 0 30 6 -3 10 -16
9 -28z m-999 -721 c0 -3 -4 -8 -10 -11 -5 -3 -10 -1 -10 4 0 6 5 11 10 11 6 0
10 -2 10 -4z"/>
<path d="M8158 5763 c7 -3 16 -2 19 1 4 3 -2 6 -13 5 -11 0 -14 -3 -6 -6z"/>
<path d="M10334 2549 c-19 -22 -19 -22 4 -10 12 6 22 16 22 21 0 15 -5 12 -26
-11z"/>
<path d="M9200 5440 c0 -5 5 -10 10 -10 6 0 10 5 10 10 0 6 -4 10 -10 10 -5 0
-10 -4 -10 -10z"/>
<path d="M9022 4308 c-20 -22 -48 -80 -78 -163 -48 -129 -53 -155 -52 -257 1
-121 10 -148 90 -253 60 -79 115 -119 265 -195 80 -40 123 -70 195 -137 195
-179 416 -240 643 -178 106 29 150 53 272 147 80 61 128 89 222 129 130 55
246 129 282 181 13 18 26 35 31 38 4 3 24 41 44 85 36 78 37 81 31 176 -3 58
-16 134 -32 195 -38 136 -43 149 -77 184 l-29 31 -53 -15 c-69 -20 -97 -50
-125 -133 -30 -89 -67 -152 -94 -161 -41 -14 -206 -2 -252 18 -39 17 -123 29
-276 40 -85 6 -170 13 -189 16 -120 18 -186 21 -219 7 -21 -8 -37 -10 -40 -4
-4 6 -25 6 -56 0 -28 -5 -82 -10 -121 -11 -67 -2 -74 0 -113 31 -23 18 -51 51
-62 72 -11 22 -28 45 -39 51 -11 7 -20 19 -20 26 0 10 -7 12 -25 8 -23 -6 -25
-3 -25 24 0 34 -30 70 -58 70 -10 0 -28 -10 -40 -22z m843 -954 c-9 -9 -18
-14 -21 -11 -9 9 6 27 22 27 13 0 13 -2 -1 -16z m-15 -44 c10 0 28 -9 41 -20
21 -16 21 -19 6 -20 -10 0 -20 7 -23 15 -5 11 -10 12 -18 6 -11 -9 -56 -5 -56
5 0 2 6 13 13 24 9 17 13 18 15 5 2 -8 12 -15 22 -15z m90 0 c0 -5 3 -9 8 -9
19 3 33 -2 27 -11 -12 -19 -51 -11 -52 10 -1 11 2 20 8 20 5 0 9 -4 9 -10z
m80 -14 c0 -3 -4 -8 -10 -11 -5 -3 -10 -1 -10 4 0 6 5 11 10 11 6 0 10 -2 10
-4z m-80 -61 c0 -5 -5 -3 -10 5 -5 8 -10 20 -10 25 0 6 5 3 10 -5 5 -8 10 -19
10 -25z m46 -3 c-4 -3 -11 0 -16 8 -15 24 -11 33 6 15 9 -9 13 -19 10 -23z
m44 8 c0 -5 -4 -10 -10 -10 -5 0 -10 5 -10 10 0 6 5 10 10 10 6 0 10 -4 10
-10z"/>
</g>
</svg>
