<?xml version="1.0" standalone="no"?>
<!DOCTYPE svg PUBLIC "-//W3C//DTD SVG 20010904//EN"
 "http://www.w3.org/TR/2001/REC-SVG-20010904/DTD/svg10.dtd">
<svg version="1.0" xmlns="http://www.w3.org/2000/svg"
 width="233.000000pt" height="349.000000pt" viewBox="0 0 233.000000 349.000000"
 preserveAspectRatio="xMidYMid meet">

<g transform="translate(0.000000,349.000000) scale(0.100000,-0.100000)"
fill="#000000" stroke="none">
<path d="M260 3305 c-19 -81 -17 -388 3 -438 8 -18 16 -78 18 -133 l4 -99 -78
3 c-77 4 -143 -11 -131 -29 3 -5 -1 -9 -8 -9 -10 0 -10 -2 0 -8 7 -5 14 -19
17 -31 2 -13 10 -29 16 -37 7 -8 9 -17 6 -20 -6 -6 60 -74 72 -74 13 0 81 -73
81 -86 0 -7 12 -25 28 -42 15 -17 28 -36 30 -43 2 -7 10 -18 19 -24 14 -11 12
-18 -21 -60 -20 -27 -57 -92 -82 -144 -25 -53 -52 -108 -60 -122 -12 -23 -36
-103 -49 -162 -2 -9 -7 -22 -10 -27 -4 -6 -1 -18 7 -27 11 -14 11 -15 0 -9
-11 6 -13 -1 -9 -35 11 -103 67 -164 146 -161 23 1 43 -7 63 -23 16 -14 36
-25 44 -25 8 0 14 -5 14 -10 0 -6 17 -25 38 -44 21 -19 44 -47 52 -63 8 -15
19 -35 25 -43 6 -8 19 -45 28 -82 10 -37 29 -89 44 -115 27 -47 27 -51 29
-249 2 -127 7 -209 14 -226 9 -20 9 -50 0 -129 -6 -57 -14 -186 -17 -286 -6
-181 -6 -183 15 -183 34 0 44 34 52 176 4 72 11 137 14 143 4 6 11 59 17 118
17 189 28 297 35 326 12 51 24 27 24 -46 0 -40 7 -98 15 -129 11 -42 12 -85 7
-179 -4 -68 -5 -187 -2 -264 5 -129 6 -140 24 -140 18 0 19 7 15 90 -5 118 0
572 7 607 13 65 21 16 28 -164 14 -379 21 -477 34 -490 9 -9 12 -3 12 31 0 35
3 42 18 39 13 -3 17 -14 17 -53 0 -28 5 -52 10 -55 15 -8 18 60 4 103 -11 32
-10 49 4 105 14 56 15 86 8 182 -5 63 -14 138 -19 165 -6 28 -8 62 -5 76 l5
25 51 -17 c71 -23 131 -29 201 -18 158 26 251 123 404 424 52 102 187 284 210
285 7 0 10 5 7 10 -3 6 -2 10 4 10 5 0 12 9 16 20 3 11 9 19 13 18 4 0 25 7
47 17 32 14 46 15 71 6 64 -23 98 -15 152 37 27 26 57 62 67 81 l17 34 -26 -5
c-14 -3 -23 -1 -20 3 3 5 12 9 19 9 20 0 34 30 32 70 -2 24 -7 34 -16 32 -12
-3 -12 -1 0 14 10 13 11 18 2 21 -7 2 -10 10 -7 18 6 14 -11 51 -33 73 -7 8
-10 18 -7 23 3 6 -6 28 -20 49 -14 22 -26 44 -26 50 0 12 -15 42 -89 182 -48
89 -50 98 -34 108 13 8 14 13 6 16 -8 4 -3 14 16 30 21 18 28 32 27 53 -2 24
5 34 36 53 20 13 38 29 38 36 0 6 5 12 10 12 6 0 22 12 35 26 14 15 25 24 25
20 0 -4 11 5 24 21 31 38 52 101 37 116 -7 7 -56 11 -129 12 -91 0 -116 3
-114 13 1 7 -12 33 -29 56 -27 39 -31 54 -36 132 -8 136 -8 199 1 319 6 90 5
117 -7 145 l-15 35 -1 -55 c-1 -31 -10 -123 -22 -205 -11 -83 -22 -190 -23
-240 -2 -49 -6 -102 -10 -116 -6 -20 -2 -33 18 -56 14 -17 26 -33 26 -37 0 -3
-22 -15 -50 -27 -27 -12 -50 -26 -50 -31 0 -10 66 -78 76 -78 4 0 -1 9 -10 19
-25 27 -17 56 14 54 59 -4 120 -16 120 -24 0 -15 -58 -49 -87 -50 -16 -1 -21
-3 -10 -6 33 -9 17 -22 -37 -28 -80 -10 -132 1 -156 34 -11 16 -17 31 -14 33
7 7 -151 -31 -211 -50 -42 -14 -50 -21 -50 -42 0 -20 5 -25 25 -26 14 0 32 -3
40 -7 48 -21 107 -37 140 -37 21 0 51 -7 66 -15 19 -9 57 -15 107 -15 54 0 77
-4 78 -12 1 -7 3 -24 4 -37 2 -25 -28 -60 -52 -61 -18 0 -16 -25 2 -44 8 -8
15 -19 15 -24 0 -6 13 -37 30 -70 16 -34 30 -66 30 -71 0 -6 4 -11 9 -11 5 0
14 -20 20 -44 6 -24 17 -49 26 -56 8 -7 15 -18 15 -26 0 -7 13 -29 30 -47 16
-19 30 -45 30 -58 0 -19 2 -21 10 -9 5 8 12 11 16 7 4 -3 1 -13 -5 -21 -13
-15 -6 -40 8 -32 4 3 4 -23 0 -56 -8 -70 -35 -113 -70 -113 -51 0 -233 -66
-259 -94 -33 -35 -306 -168 -373 -183 -29 -6 -70 -19 -92 -29 -22 -9 -65 -23
-97 -30 -40 -8 -55 -16 -51 -26 3 -7 0 -20 -7 -28 -11 -13 -10 -14 4 -9 14 5
15 3 7 -19 -5 -14 -7 -27 -4 -30 14 -14 -11 -45 -46 -57 -58 -19 -96 7 -111
76 -14 60 2 81 63 83 27 0 52 3 54 5 3 2 -21 10 -51 17 -31 7 -56 16 -56 21 0
6 -6 8 -12 5 -7 -2 -18 3 -24 12 -8 10 -25 14 -48 13 -20 -2 -36 1 -36 6 0 5
-18 12 -39 16 -22 3 -55 15 -73 25 -18 11 -67 32 -108 46 -83 30 -135 51 -165
68 -11 6 -49 27 -85 46 -93 51 -93 51 -123 103 -29 49 -33 81 -17 122 5 14 10
46 12 71 2 31 7 44 16 40 6 -2 12 2 12 11 0 40 165 318 224 377 17 16 11 27
-14 27 -9 0 -29 11 -44 25 -15 14 -35 25 -44 25 -11 0 -13 3 -6 8 6 4 10 17 9
29 -2 23 19 38 37 27 15 -10 117 -5 153 6 17 5 48 12 70 14 77 10 134 23 157
37 12 8 29 15 36 14 19 0 14 -20 -5 -20 -10 0 -27 -6 -38 -13 -18 -12 -17 -13
13 -8 36 6 38 4 16 -19 -9 -9 -14 -18 -12 -21 10 -9 58 16 56 28 -2 7 3 12 10
11 16 -4 16 9 0 25 -10 10 -10 15 0 21 25 15 -33 47 -125 70 -61 16 -89 19
-91 11 -9 -27 -125 -51 -205 -43 l-55 6 51 26 c28 14 57 36 64 47 13 20 10 23
-70 62 -92 45 -97 51 -97 137 0 28 -6 59 -13 70 -18 26 -43 98 -58 160 -6 28
-14 131 -18 230 l-6 180 -15 -60z m17 -740 c7 -22 25 -52 40 -67 15 -15 22
-28 17 -28 -21 0 -100 60 -117 89 -17 28 -17 30 0 40 29 17 45 8 60 -34z
m1803 1 c0 -16 -13 -35 -37 -55 -47 -38 -66 -40 -31 -3 15 15 31 39 37 55 13
34 31 35 31 3z m-1735 -23 c12 -16 19 -16 78 -4 76 15 92 10 76 -22 -16 -30
-28 -37 -67 -37 -37 0 -112 43 -112 65 0 20 10 19 25 -2z m125 -172 c0 -4 -11
-7 -25 -7 -14 0 -25 5 -25 12 0 7 10 9 25 6 14 -2 25 -7 25 -11z m1050 -1096
c-7 -8 -22 -15 -34 -15 -20 1 -20 2 4 15 33 19 46 19 30 0z m-694 -42 c-8 -8
-56 6 -56 17 0 5 13 5 31 -2 16 -6 28 -13 25 -15z m610 -18 c-3 -11 -6 -25 -6
-31 0 -20 -69 -47 -85 -34 -15 13 -18 9 -35 -43 -12 -39 -50 -73 -73 -64 -7 3
-24 -1 -37 -8 -36 -19 -50 -2 -50 60 0 72 23 101 92 111 29 5 61 8 70 6 9 -1
32 5 50 13 48 20 81 16 74 -10z m-515 -6 c22 -11 13 -69 -11 -69 -26 0 -58 31
-66 64 -7 28 -6 28 27 21 19 -4 41 -11 50 -16z"/>
<path d="M723 1878 c-23 -29 -53 -132 -53 -182 0 -81 48 -139 158 -195 24 -13
63 -39 85 -60 116 -106 256 -114 379 -24 34 25 89 58 123 73 80 36 130 80 151
135 18 48 15 87 -12 182 -16 54 -31 67 -69 57 -22 -5 -28 -13 -60 -85 -19 -44
-53 -52 -137 -33 -69 16 -274 35 -313 29 -100 -15 -114 -11 -160 39 -24 27
-46 54 -49 62 -7 17 -30 18 -43 2z m367 -438 c0 -5 -2 -10 -4 -10 -3 0 -8 5
-11 10 -3 6 -1 10 4 10 6 0 11 -4 11 -10z m45 0 c3 -5 1 -10 -4 -10 -6 0 -11
5 -11 10 0 6 2 10 4 10 3 0 8 -4 11 -10z"/>
</g>
</svg>
